<?xml version="1.0" standalone="no"?>
<!DOCTYPE svg PUBLIC "-//W3C//DTD SVG 1.1//EN" "http://www.w3.org/Graphics/SVG/1.1/DTD/svg11.dtd">
<svg version="1.1" xmlns="http://www.w3.org/2000/svg" viewBox="0 0 217.06574382151575 160.92606382377107" width="651.1972314645473" height="482.7781914713132"><!-- svg-source:excalidraw --><metadata></metadata><defs><style class="style-fonts">
      </style></defs><g stroke-linecap="round" transform="translate(136.68528523375608 10) rotate(0 23.278420830309642 20.368618226520994)"><path d="M5.39 7.34 C5.39 7.34, 5.39 7.34, 5.39 7.34 M5.39 7.34 C5.39 7.34, 5.39 7.34, 5.39 7.34 M5 32.17 C14.72 21, 24.43 9.82, 31.9 1.23 M5 32.17 C13.36 22.56, 21.72 12.94, 31.9 1.23 M19.05 40.41 C26.19 32.19, 33.33 23.97, 43.98 11.73 M19.05 40.41 C25.6 32.87, 32.14 25.34, 43.98 11.73" stroke="#99e9f2" stroke-width="2" fill="none"></path><path d="M46.56 20.37 C46.56 21.55, 46.44 22.74, 46.2 23.91 C45.97 25.07, 45.61 26.23, 45.15 27.34 C44.69 28.44, 44.11 29.53, 43.44 30.55 C42.76 31.57, 41.98 32.56, 41.11 33.46 C40.24 34.36, 39.27 35.21, 38.24 35.97 C37.21 36.73, 36.08 37.42, 34.92 38.01 C33.75 38.6, 32.51 39.11, 31.24 39.51 C29.97 39.91, 28.65 40.22, 27.32 40.43 C25.99 40.63, 24.63 40.74, 23.28 40.74 C21.93 40.74, 20.56 40.63, 19.24 40.43 C17.91 40.22, 16.58 39.91, 15.32 39.51 C14.05 39.11, 12.81 38.6, 11.64 38.01 C10.47 37.42, 9.35 36.73, 8.32 35.97 C7.28 35.21, 6.31 34.36, 5.45 33.46 C4.58 32.56, 3.79 31.57, 3.12 30.55 C2.45 29.53, 1.86 28.44, 1.4 27.34 C0.94 26.23, 0.59 25.07, 0.35 23.91 C0.12 22.74, 0 21.55, 0 20.37 C0 19.19, 0.12 17.99, 0.35 16.83 C0.59 15.67, 0.94 14.51, 1.4 13.4 C1.86 12.29, 2.45 11.21, 3.12 10.18 C3.79 9.16, 4.58 8.18, 5.45 7.28 C6.31 6.37, 7.28 5.52, 8.32 4.77 C9.35 4.01, 10.47 3.32, 11.64 2.73 C12.81 2.14, 14.05 1.63, 15.32 1.23 C16.58 0.83, 17.91 0.51, 19.24 0.31 C20.56 0.1, 21.93 0, 23.28 0 C24.63 0, 25.99 0.1, 27.32 0.31 C28.65 0.51, 29.97 0.83, 31.24 1.23 C32.51 1.63, 33.75 2.14, 34.92 2.73 C36.08 3.32, 37.21 4.01, 38.24 4.77 C39.27 5.52, 40.24 6.37, 41.11 7.28 C41.98 8.18, 42.76 9.16, 43.44 10.18 C44.11 11.21, 44.69 12.29, 45.15 13.4 C45.61 14.51, 45.97 15.67, 46.2 16.83 C46.44 17.99, 46.5 19.78, 46.56 20.37 C46.62 20.96, 46.62 19.78, 46.56 20.37" stroke="#279185" stroke-width="4" fill="none"></path></g><g stroke-linecap="round" transform="translate(34.88981696686369 11.374446692410856) rotate(0 23.278420830309642 20.368618226520994)"><path d="M5.39 7.34 C5.39 7.34, 5.39 7.34, 5.39 7.34 M5.39 7.34 C5.39 7.34, 5.39 7.34, 5.39 7.34 M5 32.17 C10.46 25.9, 15.92 19.62, 31.9 1.23 M5 32.17 C15.75 19.81, 26.51 7.44, 31.9 1.23 M19.05 40.41 C25.05 33.5, 31.05 26.6, 43.98 11.73 M19.05 40.41 C26.76 31.54, 34.47 22.67, 43.98 11.73" stroke="#99e9f2" stroke-width="2" fill="none"></path><path d="M46.56 20.37 C46.56 21.55, 46.44 22.74, 46.2 23.91 C45.97 25.07, 45.61 26.23, 45.15 27.34 C44.69 28.44, 44.11 29.53, 43.44 30.55 C42.76 31.57, 41.98 32.56, 41.11 33.46 C40.24 34.36, 39.27 35.21, 38.24 35.97 C37.21 36.73, 36.08 37.42, 34.92 38.01 C33.75 38.6, 32.51 39.11, 31.24 39.51 C29.97 39.91, 28.65 40.22, 27.32 40.43 C25.99 40.63, 24.63 40.74, 23.28 40.74 C21.93 40.74, 20.56 40.63, 19.24 40.43 C17.91 40.22, 16.58 39.91, 15.32 39.51 C14.05 39.11, 12.81 38.6, 11.64 38.01 C10.47 37.42, 9.35 36.73, 8.32 35.97 C7.28 35.21, 6.31 34.36, 5.45 33.46 C4.58 32.56, 3.79 31.57, 3.12 30.55 C2.45 29.53, 1.86 28.44, 1.4 27.34 C0.94 26.23, 0.59 25.07, 0.35 23.91 C0.12 22.74, 0 21.55, 0 20.37 C0 19.19, 0.12 17.99, 0.35 16.83 C0.59 15.67, 0.94 14.51, 1.4 13.4 C1.86 12.29, 2.45 11.21, 3.12 10.18 C3.79 9.16, 4.58 8.18, 5.45 7.28 C6.31 6.37, 7.28 5.52, 8.32 4.77 C9.35 4.01, 10.47 3.32, 11.64 2.73 C12.81 2.14, 14.05 1.63, 15.32 1.23 C16.58 0.83, 17.91 0.51, 19.24 0.31 C20.56 0.1, 21.93 0, 23.28 0 C24.63 0, 25.99 0.1, 27.32 0.31 C28.65 0.51, 29.97 0.83, 31.24 1.23 C32.51 1.63, 33.75 2.14, 34.92 2.73 C36.08 3.32, 37.21 4.01, 38.24 4.77 C39.27 5.52, 40.24 6.37, 41.11 7.28 C41.98 8.18, 42.76 9.16, 43.44 10.18 C44.11 11.21, 44.69 12.29, 45.15 13.4 C45.61 14.51, 45.97 15.67, 46.2 16.83 C46.44 17.99, 46.5 19.78, 46.56 20.37 C46.62 20.96, 46.62 19.78, 46.56 20.37" stroke="#279185" stroke-width="4" fill="none"></path></g><g stroke-linecap="round"><g transform="translate(59.527551792709346 150.29065750617247) rotate(0 49.2739634797681 -43.87704940938056)" fill-rule="evenodd"><path d="M18.36 -68.84 C18.36 -68.84, 18.36 -68.84, 18.36 -68.84 M18.36 -68.84 C18.36 -68.84, 18.36 -68.84, 18.36 -68.84 M3.54 -27.4 C15.86 -41.57, 28.18 -55.74, 54.71 -86.26 M3.54 -27.4 C19.37 -45.6, 35.19 -63.81, 54.71 -86.26 M0.53 0.46 C23.75 -26.25, 46.97 -52.97, 69.41 -78.79 M0.53 0.46 C20.96 -23.04, 41.38 -46.54, 69.41 -78.79 M21.79 0.39 C41.63 -22.44, 61.47 -45.26, 80.83 -67.53 M21.79 0.39 C36.08 -16.05, 50.37 -32.5, 80.83 -67.53 M43.05 0.32 C61.31 -20.69, 79.57 -41.7, 89.63 -53.26 M43.05 0.32 C54.55 -12.91, 66.05 -26.15, 89.63 -53.26 M63.65 1.01 C70.74 -7.15, 77.83 -15.3, 97.77 -38.24 M63.65 1.01 C77.15 -14.52, 90.64 -30.04, 97.77 -38.24 M87.54 -2.08 C91.81 -6.99, 96.08 -11.91, 103.28 -20.19 M87.54 -2.08 C92.54 -7.84, 97.54 -13.6, 103.28 -20.19" stroke="#99e9f2" stroke-width="2" fill="none"></path><path d="M0 0 C1.84 -9.69, 3.15 -43.52, 11.04 -58.15 C18.92 -72.78, 35.21 -86.7, 47.3 -87.75 C59.39 -88.81, 75.03 -78.11, 83.57 -64.49 C92.11 -50.87, 112.48 -16.79, 98.55 -6.04 C84.62 4.71, 16.42 -1.01, 0 0 M0 0 C1.84 -9.69, 3.15 -43.52, 11.04 -58.15 C18.92 -72.78, 35.21 -86.7, 47.3 -87.75 C59.39 -88.81, 75.03 -78.11, 83.57 -64.49 C92.11 -50.87, 112.48 -16.79, 98.55 -6.04 C84.62 4.71, 16.42 -1.01, 0 0" stroke="#279185" stroke-width="4" fill="none"></path></g></g><mask></mask><g stroke-linecap="round" transform="translate(84.24614594411105 16.929404936654464) rotate(0 25.228269301641376 22.07473563893609)"><path d="M5.95 7.83 C5.95 7.83, 5.95 7.83, 5.95 7.83 M5.95 7.83 C5.95 7.83, 5.95 7.83, 5.95 7.83 M4.25 34.17 C10.71 26.75, 17.16 19.32, 33.12 0.96 M4.25 34.17 C13.29 23.78, 22.33 13.38, 33.12 0.96 M17.64 43.16 C26.27 33.23, 34.9 23.3, 46.51 9.95 M17.64 43.16 C27.97 31.28, 38.29 19.4, 46.51 9.95" stroke="#99e9f2" stroke-width="2" fill="none"></path><path d="M50.46 22.07 C50.46 23.35, 50.33 24.65, 50.07 25.91 C49.82 27.17, 49.43 28.42, 48.94 29.62 C48.44 30.83, 47.81 32.01, 47.08 33.11 C46.35 34.22, 45.49 35.29, 44.55 36.26 C43.62 37.24, 42.56 38.16, 41.44 38.98 C40.33 39.81, 39.11 40.55, 37.84 41.19 C36.58 41.83, 35.23 42.38, 33.86 42.82 C32.48 43.26, 31.05 43.59, 29.61 43.81 C28.17 44.04, 26.69 44.15, 25.23 44.15 C23.77 44.15, 22.29 44.04, 20.85 43.81 C19.41 43.59, 17.97 43.26, 16.6 42.82 C15.23 42.38, 13.88 41.83, 12.61 41.19 C11.35 40.55, 10.13 39.81, 9.01 38.98 C7.89 38.16, 6.84 37.24, 5.9 36.26 C4.96 35.29, 4.11 34.22, 3.38 33.11 C2.65 32.01, 2.02 30.83, 1.52 29.62 C1.02 28.42, 0.64 27.17, 0.38 25.91 C0.13 24.65, 0 23.35, 0 22.07 C0 20.8, 0.13 19.5, 0.38 18.24 C0.64 16.98, 1.02 15.73, 1.52 14.52 C2.02 13.32, 2.65 12.14, 3.38 11.04 C4.11 9.93, 4.96 8.86, 5.9 7.89 C6.84 6.91, 7.89 5.99, 9.01 5.16 C10.13 4.34, 11.35 3.6, 12.61 2.96 C13.88 2.32, 15.23 1.77, 16.6 1.33 C17.97 0.89, 19.41 0.56, 20.85 0.34 C22.29 0.11, 23.77 0, 25.23 0 C26.69 0, 28.17 0.11, 29.61 0.34 C31.05 0.56, 32.48 0.89, 33.86 1.33 C35.23 1.77, 36.58 2.32, 37.84 2.96 C39.11 3.6, 40.33 4.34, 41.44 5.16 C42.56 5.99, 43.62 6.91, 44.55 7.89 C45.49 8.86, 46.35 9.93, 47.08 11.04 C47.81 12.14, 48.44 13.32, 48.94 14.52 C49.43 15.73, 49.82 16.98, 50.07 18.24 C50.33 19.5, 50.39 21.44, 50.46 22.07 C50.52 22.71, 50.52 21.44, 50.46 22.07" stroke="#279185" stroke-width="4" fill="none"></path></g><g stroke-linecap="round"><g transform="translate(128.24504522895495 70.92366812365253) rotate(0 39.4103492962804 23.458541247785888)" fill-rule="evenodd"><path d="M0 0 C0 0, 0 0, 0 0 M0 0 C0 0, 0 0, 0 0 M11.42 11.25 C18.17 3.49, 24.92 -4.28, 38.32 -19.69 M11.42 11.25 C18.27 3.37, 25.12 -4.51, 38.32 -19.69 M20.87 24.77 C34.66 8.91, 48.44 -6.95, 55.64 -15.23 M20.87 24.77 C31.06 13.04, 41.26 1.32, 55.64 -15.23 M28.35 40.55 C37.89 29.58, 47.42 18.61, 64.44 -0.96 M28.35 40.55 C39.34 27.91, 50.33 15.27, 64.44 -0.96 M34.52 57.84 C48.85 41.35, 63.18 24.87, 71.26 15.57 M34.52 57.84 C45.86 44.79, 57.2 31.75, 71.26 15.57 M47.26 67.58 C54.86 58.83, 62.47 50.07, 76.78 33.62 M47.26 67.58 C56.37 57.1, 65.48 46.62, 76.78 33.62 M72.45 62.98 C74.22 60.95, 75.99 58.92, 77.7 56.94 M72.45 62.98 C73.78 61.45, 75.11 59.92, 77.7 56.94" stroke="#99e9f2" stroke-width="2" fill="none"></path><path d="M0 0 C2.03 -2.19, 8.45 -9.85, 12.2 -13.14 C15.95 -16.42, 17.83 -18.45, 22.52 -19.71 C27.21 -20.96, 35.34 -20.96, 40.35 -20.64 C45.35 -20.33, 49.11 -19.86, 52.55 -17.83 C55.99 -15.8, 58.65 -12.04, 60.99 -8.45 C63.34 -4.85, 64.75 -0.78, 66.62 3.75 C68.5 8.29, 70.53 13.76, 72.25 18.77 C73.97 23.77, 75.85 29.24, 76.94 33.78 C78.04 38.32, 78.82 41.91, 78.82 45.98 C78.82 50.04, 78.51 55.21, 76.94 58.18 C75.38 61.15, 72.41 62.4, 69.44 63.81 C66.47 65.21, 63.34 66, 59.12 66.62 C54.89 67.25, 48.17 67.72, 44.1 67.56 C40.04 67.4, 36.44 68.19, 34.72 65.68 C33 63.18, 34.56 56.14, 33.78 52.55 C33 48.95, 31.75 47.7, 30.03 44.1 C28.31 40.51, 26.12 36.13, 23.46 30.97 C20.8 25.8, 17.98 18.3, 14.08 13.14 C10.17 7.98, 2.35 2.19, 0 0 M0 0 C2.03 -2.19, 8.45 -9.85, 12.2 -13.14 C15.95 -16.42, 17.83 -18.45, 22.52 -19.71 C27.21 -20.96, 35.34 -20.96, 40.35 -20.64 C45.35 -20.33, 49.11 -19.86, 52.55 -17.83 C55.99 -15.8, 58.65 -12.04, 60.99 -8.45 C63.34 -4.85, 64.75 -0.78, 66.62 3.75 C68.5 8.29, 70.53 13.76, 72.25 18.77 C73.97 23.77, 75.85 29.24, 76.94 33.78 C78.04 38.32, 78.82 41.91, 78.82 45.98 C78.82 50.04, 78.51 55.21, 76.94 58.18 C75.38 61.15, 72.41 62.4, 69.44 63.81 C66.47 65.21, 63.34 66, 59.12 66.62 C54.89 67.25, 48.17 67.72, 44.1 67.56 C40.04 67.4, 36.44 68.19, 34.72 65.68 C33 63.18, 34.56 56.14, 33.78 52.55 C33 48.95, 31.75 47.7, 30.03 44.1 C28.31 40.51, 26.12 36.13, 23.46 30.97 C20.8 25.8, 17.98 18.3, 14.08 13.14 C10.17 7.98, 2.35 2.19, 0 0" stroke="#279185" stroke-width="4" fill="none"></path></g></g><mask></mask><g stroke-linecap="round"><g transform="translate(86.00567364282597 70.89567344342413) rotate(0 -38.002836821412984 28.150249497342884)" fill-rule="evenodd"><path d="M-54.08 -11.24 C-54.08 -11.24, -54.08 -11.24, -54.08 -11.24 M-54.08 -11.24 C-54.08 -11.24, -54.08 -11.24, -54.08 -11.24 M-74.15 36.24 C-57.65 17.25, -41.14 -1.73, -26.92 -18.1 M-74.15 36.24 C-60.27 20.27, -46.39 4.3, -26.92 -18.1 M-73.89 60.32 C-58.51 42.63, -43.13 24.94, -10.9 -12.13 M-73.89 60.32 C-52.53 35.76, -31.18 11.19, -10.9 -12.13 M-60.5 69.31 C-44.34 50.72, -28.18 32.13, -0.14 -0.12 M-60.5 69.31 C-36.75 42, -13.01 14.68, -0.14 -0.12 M-43.17 73.77 C-38.22 68.07, -33.27 62.37, -22.18 49.62 M-43.17 73.77 C-38.65 68.57, -34.13 63.37, -22.18 49.62" stroke="#99e9f2" stroke-width="2" fill="none"></path><path d="M0 0 C-1.56 -1.72, -6.1 -7.51, -9.38 -10.32 C-12.67 -13.14, -15.01 -15.64, -19.71 -16.89 C-24.4 -18.14, -32.53 -18.14, -37.53 -17.83 C-42.54 -17.52, -46.29 -17.05, -49.73 -15.01 C-53.17 -12.98, -55.83 -9.23, -58.18 -5.63 C-60.52 -2.03, -61.93 2.03, -63.81 6.57 C-65.68 11.1, -67.72 16.58, -69.44 21.58 C-71.16 26.59, -73.03 32.06, -74.13 36.6 C-75.22 41.13, -76.01 44.73, -76.01 48.79 C-76.01 52.86, -75.69 58.02, -74.13 60.99 C-72.57 63.96, -69.44 64.9, -66.62 66.62 C-63.81 68.34, -61.3 70.06, -57.24 71.31 C-53.17 72.57, -47.39 73.66, -42.23 74.13 C-37.06 74.6, -29.24 76.94, -26.27 74.13 C-23.3 71.31, -25.02 61.46, -24.4 57.24 C-23.77 53.02, -23.3 52.55, -22.52 48.79 C-21.74 45.04, -21.58 40.19, -19.71 34.72 C-17.83 29.24, -14.54 21.74, -11.26 15.95 C-7.98 10.17, -1.88 2.66, 0 0 M0 0 C-1.56 -1.72, -6.1 -7.51, -9.38 -10.32 C-12.67 -13.14, -15.01 -15.64, -19.71 -16.89 C-24.4 -18.14, -32.53 -18.14, -37.53 -17.83 C-42.54 -17.52, -46.29 -17.05, -49.73 -15.01 C-53.17 -12.98, -55.83 -9.23, -58.18 -5.63 C-60.52 -2.03, -61.93 2.03, -63.81 6.57 C-65.68 11.1, -67.72 16.58, -69.44 21.58 C-71.16 26.59, -73.03 32.06, -74.13 36.6 C-75.22 41.13, -76.01 44.73, -76.01 48.79 C-76.01 52.86, -75.69 58.02, -74.13 60.99 C-72.57 63.96, -69.44 64.9, -66.62 66.62 C-63.81 68.34, -61.3 70.06, -57.24 71.31 C-53.17 72.57, -47.39 73.66, -42.23 74.13 C-37.06 74.6, -29.24 76.94, -26.27 74.13 C-23.3 71.31, -25.02 61.46, -24.4 57.24 C-23.77 53.02, -23.3 52.55, -22.52 48.79 C-21.74 45.04, -21.58 40.19, -19.71 34.72 C-17.83 29.24, -14.54 21.74, -11.26 15.95 C-7.98 10.17, -1.88 2.66, 0 0" stroke="#279185" stroke-width="4" fill="none"></path></g></g><mask></mask></svg>